<svg xmlns="http://www.w3.org/2000/svg" xmlns:xlink="http://www.w3.org/1999/xlink" viewBox="0 0 179.57 182.8"><defs><linearGradient id="linear-gradient" x1="165.36" y1="121.57" x2="280.37" y2="121.57" gradientUnits="userSpaceOnUse"><stop offset="0" stop-color="#dbb8ee"/><stop offset="1" stop-color="#f8ecf8"/></linearGradient><linearGradient id="linear-gradient-2" x1="87.25" y1="123.53" x2="246.82" y2="92.7" gradientUnits="userSpaceOnUse"><stop offset="0" stop-color="#fff"/><stop offset="0.19" stop-color="#dbb8ee"/><stop offset="1" stop-color="#5044b4"/></linearGradient><linearGradient id="linear-gradient-3" x1="100.96" y1="158.63" x2="241.97" y2="158.63" gradientUnits="userSpaceOnUse"><stop offset="0" stop-color="#5044b4"/><stop offset="1" stop-color="#f8ecf8"/></linearGradient><radialGradient id="radial-gradient" cx="244.86" cy="130.45" r="82.62" gradientUnits="userSpaceOnUse"><stop offset="0"/><stop offset="1" stop-color="#f8ecf8" stop-opacity="0"/></radialGradient><linearGradient id="未命名漸層_27" x1="103.67" y1="117.91" x2="227.05" y2="117.91" gradientUnits="userSpaceOnUse"><stop offset="0" stop-color="#683ad1"/><stop offset="0.68" stop-color="#d2ccf8"/></linearGradient><linearGradient id="linear-gradient-4" x1="156.94" y1="175.52" x2="280.32" y2="175.52" xlink:href="#linear-gradient-3"/><radialGradient id="未命名漸層_24" cx="210.89" cy="124.06" fx="195.27530159568659" fy="132.7229574016663" r="20.87" gradientUnits="userSpaceOnUse"><stop offset="0.2"/><stop offset="1" stop-color="#f8ecf8" stop-opacity="0"/></radialGradient><linearGradient id="linear-gradient-5" x1="122.65" y1="184.29" x2="239.13" y2="171.99" xlink:href="#linear-gradient-3"/><linearGradient id="linear-gradient-6" x1="114.86" y1="176.99" x2="222.5" y2="176.99" xlink:href="#linear-gradient-3"/></defs><title>eagle_logo</title><g style="isolation:isolate"><g id="圖層_2" data-name="圖層 2"><path d="M190.59,53a88.71,88.71,0,0,0-25.23,3.65c66.7-13,88.75,44,82.25,53,16.19,26.39-1.65,34.28-5.89,35.73a8.17,8.17,0,0,1-.48,1.35,8.17,8.17,0,0,0,.48-1.35c-.54.18-.86.27-.86.27s.32-.09.86-.27a14,14,0,0,0,.25-6,74.62,74.62,0,0,0-17.56-12.72c-10.74-1.43-23.12-.89-32.41,12.76-4.51,6.62-4.35,14.79-2.2,22.44,3.68,11.31,14.27,21.1,22.93,24.93.57.23,21.21,8.38,39.89-1.94,10.78-6.75,11.44-7.11,16-11.18,5.68-8.63,9.71-17.13,11.71-26.72,0-.93.05-1.86.05-2.79C280.37,93.85,240.17,53,190.59,53Z" transform="translate(-100.8 -53.04)" style="fill:url(#linear-gradient)"/><path d="M247.61,109.7c6.5-9-15.55-66-82.25-53-37.31,11.07-64.56,46.05-64.56,87.5,0,1.78.06,3.55.16,5.31,26.71-58.95,60.7-57.09,76.65-56a38.89,38.89,0,0,0-12.77,7.94c39,.25,57.36,13.58,69.33,24.87,5.23,5,7.21,9.53,7.8,13.09a14,14,0,0,1-.25,6C246,144,263.8,136.09,247.61,109.7ZM232.48,102c-.95-5-1.7-3,.63-6.46,0,0,5,5.33,6.5,10.67C239.61,106.2,237,106.15,232.48,102Z" transform="translate(-100.8 -53.04)" style="fill:url(#linear-gradient-2)"/><path d="M234.17,126.32c-12-11.29-30.34-24.62-69.33-24.87a38.89,38.89,0,0,1,12.77-7.94c-16-1.1-49.94-3-76.65,56a91.27,91.27,0,0,0,46.4,74.6c-63.51-54.6-14.56-94.33-4.83-100.38-1.84,1.62-8,4.56-6.84,18.06,34.45-28,63.25-25.85,82.35-18,2.26.93,4.39,1.92,6.37,3A74.62,74.62,0,0,1,242,139.41C241.38,135.85,239.4,131.27,234.17,126.32Z" transform="translate(-100.8 -53.04)" style="fill:url(#linear-gradient-3)"/><path d="M234.17,126.32c-12-11.29-30.34-24.62-69.33-24.87a38.89,38.89,0,0,1,12.77-7.94c-16-1.1-49.94-3-76.65,56a91.27,91.27,0,0,0,46.4,74.6c-63.51-54.6-14.56-94.33-4.83-100.38-1.84,1.62-8,4.56-6.84,18.06,34.45-28,63.25-25.85,82.35-18,2.26.93,4.39,1.92,6.37,3A74.62,74.62,0,0,1,242,139.41C241.38,135.85,239.4,131.27,234.17,126.32Z" transform="translate(-100.8 -53.04)" style="mix-blend-mode:color-burn;fill:url(#radial-gradient)"/><path d="M223.28,117.54c-1.3-.89-2.58-1.82-3.93-2.64l-2-1.27-2.06-1.17c-1.37-.8-2.78-1.5-4.2-2.22s-2.87-1.33-4.32-2-2.94-1.19-4.42-1.79-3-1.06-4.51-1.58-3-.94-4.57-1.39l-2.31-.66c-.77-.2-1.56-.36-2.33-.56-1.56-.35-3.11-.79-4.69-1.07l-4.72-1c-1.58-.29-3.17-.48-4.76-.77l-2.39-.4-.41,0,.19-.21,1.35-1.29c.45-.43.94-.81,1.42-1.23a16.9,16.9,0,0,1,1.5-1.18L177.66,94h0l.61,0-.66-.35a16.23,16.23,0,0,0-6.37-1.76c-1.08-.08-2.17-.08-3.26-.07s-2.19.06-3.28.13a51.12,51.12,0,0,0-6.5.93,56.7,56.7,0,0,0-6.31,1.77c-2.07.7-4.08,1.55-6.06,2.43-1,.44-2,.94-2.93,1.41S141,99.5,140,100s-1.89,1.07-2.8,1.65-1.83,1.15-2.71,1.78-1.75,1.27-2.6,1.93-1.66,1.39-2.48,2.09l-2.37,2.2c-.78.75-1.51,1.54-2.27,2.3s-1.45,1.59-2.17,2.39-1.43,1.6-2.09,2.45-1.37,1.65-2,2.51l-1.92,2.58c-.65.85-1.22,1.76-1.84,2.63s-1.21,1.76-1.77,2.68l-1.7,2.72-1.63,2.76c-1.11,1.82-2.1,3.71-3.12,5.59s-1.93,3.81-2.89,5.71l.08,0c1-1.86,1.94-3.76,3-5.59s2.09-3.72,3.24-5.51c.57-.9,1.11-1.82,1.71-2.7l1.81-2.64c.59-.88,1.23-1.73,1.87-2.58s1.25-1.72,1.93-2.54l2-2.47c.66-.83,1.4-1.6,2.09-2.4s1.42-1.58,2.17-2.33,1.45-1.54,2.24-2.25,1.53-1.46,2.32-2.16l2.41-2c.83-.65,1.67-1.28,2.49-2s1.7-1.23,2.54-1.87,1.74-1.17,2.61-1.77,1.8-1.09,2.7-1.62,1.87-1,2.81-1.44,1.92-.85,2.9-1.23a46.58,46.58,0,0,1,6-1.85,59.14,59.14,0,0,1,6.14-1.14c2.07-.27,4.14-.44,6.21-.59,1,0,2.07-.11,3.11-.13s2.09,0,3.14-.07h.08l-1.43.45-1.91.72c-.63.25-1.25.54-1.89.82a31.14,31.14,0,0,0-3.77,2h0l-6.15,7.25,8.69-1c1.55-.17,3.09-.28,4.64-.42l2.33-.17,2.33-.06c1.55,0,3.11-.07,4.66,0l4.66.18c1.57,0,3.1.28,4.65.41.78.08,1.56.16,2.33.26l2.3.38c1.54.24,3.09.5,4.6.88s3.07.64,4.55,1.12,3,.83,4.48,1.4,3,1,4.39,1.68,2.9,1.21,4.28,2l2.1,1.06,2.05,1.17c1.38.75,2.67,1.65,4,2.5s2.52,1.78,3.76,2.7l.14,0C225.81,119.43,224.56,118.46,223.28,117.54Z" transform="translate(-100.8 -53.04)" style="mix-blend-mode:multiply;fill:url(#未命名漸層_27)"/><path d="M252.62,184.88c-18.68,10.32-39.32,2.17-39.89,1.94-8.66-3.83-19.25-13.62-22.93-24.93-2.15-7.65-2.31-15.82,2.2-22.44,9.29-13.65,21.67-14.19,32.41-12.76-2-1-4.11-2-6.37-3-6.65-1.15-17.21-2.21-27.46.81-24.94,7.34-46.33,37-16.1,79.28-2.2,1-13.87-5.62-17.54-9.46a49.58,49.58,0,0,0,11.67,17.5c12.5,11.83,34.54,22.42,63.87,13A91.26,91.26,0,0,0,280.32,147c-2,9.59-6,18.09-11.71,26.72C264.06,177.77,263.4,178.13,252.62,184.88Z" transform="translate(-100.8 -53.04)" style="fill:url(#linear-gradient-4)"/><path d="M252.62,184.88c-18.68,10.32-39.32,2.17-39.89,1.94-8.66-3.83-19.25-13.62-22.93-24.93-2.15-7.65-2.31-15.82,2.2-22.44,9.29-13.65,21.67-14.19,32.41-12.76-2-1-4.11-2-6.37-3-6.65-1.15-17.21-2.21-27.46.81-24.94,7.34-46.33,37-16.1,79.28-2.2,1-13.87-5.62-17.54-9.46a49.58,49.58,0,0,0,11.67,17.5c12.5,11.83,34.54,22.42,63.87,13A91.26,91.26,0,0,0,280.32,147c-2,9.59-6,18.09-11.71,26.72C264.06,177.77,263.4,178.13,252.62,184.88Z" transform="translate(-100.8 -53.04)" style="opacity:0.1;mix-blend-mode:color-burn;fill:url(#未命名漸層_24)"/><path d="M239.61,106.2c-1.5-5.34-6.5-10.67-6.5-10.67-2.33,3.5-1.58,1.42-.63,6.46C237,106.15,239.61,106.2,239.61,106.2Z" transform="translate(-100.8 -53.04)" style="fill:#fff"/><path d="M187.35,224a61.33,61.33,0,0,1-18.74-12.11,49.58,49.58,0,0,1-11.67-17.5c3.67,3.84,15.34,10.42,17.54,9.46-30.23-42.3-8.84-71.94,16.1-79.28,10.25-3,20.81-2,27.46-.81-19.1-7.8-47.9-10-82.35,18-1.16-13.5,5-16.44,6.84-18.06-9.73,6.05-58.68,45.78,4.83,100.38a88.41,88.41,0,0,0,43.23,11.24c2.22,0,4.43-.09,6.61-.25C193.39,232.68,188.71,228.84,187.35,224Z" transform="translate(-100.8 -53.04)" style="stroke-miterlimit:10;fill:url(#linear-gradient-5);stroke:url(#linear-gradient-6)"/></g></g></svg>